# xmcd
#
# Track frame offsets: 
#        150
#        18483
#        35283
#        53870
#        75780
#        99305
#        114755
#        148562
#        167812
#        179517
#        193177
#        221349
#        239051
#        262076
#
# Disc length: 3879 seconds
#
# Revision: 0
# Processed by: cddbd v1.5.2PL0 Copyright (c) Steve Scherf et al.
# Submitted via: ExactAudioCopyFreeDBPlugin 1.0
#
DISCID=ba0f250e
DTITLE=Bill Harwell - BIG BILL HARWELL BAND
DYEAR=2014
DGENRE=Blues
TTITLE0=Big Bill Harwell Band - Honey Hush
TTITLE1=Big Bill Harwell Band - little by little 
TTITLE2=Big Bill Harwell Band - bluesman
TTITLE3=Big Bill Harwell Band - voodoo woman
TTITLE4=Big Bill Harwell Band - after all
TTITLE5=Big Bill Harwell Band - got my mojo working
TTITLE6=Big Bill Harwell Band - just wont burn - you need to be with m
TTITLE6=e
TTITLE7=Big Bill Harwell Band - i can tell
TTITLE8=Big Bill Harwell Band - no good woman
TTITLE9=Big Bill Harwell Band - mama he treats your daughter so mean
TTITLE10=Big Bill Harwell Band - i'd rather go blind
TTITLE11=Big Bill Harwell Band - hurts so bad
TTITLE12=Big Bill Harwell Band - blue eyes on my mind
TTITLE13=Big Bill Harwell Band - help me
EXTD=
EXTT0=
EXTT1=
EXTT2=
EXTT3=
EXTT4=
EXTT5=
EXTT6=
EXTT7=
EXTT8=
EXTT9=
EXTT10=
EXTT11=
EXTT12=
EXTT13=
PLAYORDER=
